# xmcd CD database file
#
# Track frame offsets:
#	150
#	16860
#	36535
#	53235
#	78375
#
# Disc length: 1322 seconds
#
# Revision: 0
# Processed by: cddbd v1.5.2PL0 Copyright (c) Steve Scherf et al.
# Submitted via: CDex 1.70beta2
#
DISCID=37052805
DTITLE=pe'zmoku - 蒼白い街
DYEAR=2008
DGENRE=Jazz
TTITLE0=蒼白い街
TTITLE1=それでもそれでもそれでも
TTITLE2=帰り道
TTITLE3=Drum Thunder
TTITLE4=酒気帯び散歩(Re-constructed by pe'zmoku)
EXTD=YEAR: 2008
EXTT0=
EXTT1=
EXTT2=
EXTT3=
EXTT4=
PLAYORDER=
